HIERARCHY
ROOT Hips
{
	OFFSET 0.00000 0.00000 0.00000
	CHANNELS 6 Xposition Yposition Zposition Zrotation Yrotation Xrotation 
	JOINT LHipJoint
	{
		OFFSET 0 0 0
		CHANNELS 3 Zrotation Yrotation Xrotation
		JOINT LeftHip
		{
			OFFSET 1.56857 -1.73443 1.15205
			CHANNELS 3 Zrotation Yrotation Xrotation
			JOINT LeftKnee
			{
				OFFSET 2.39362 -6.57643 0.00000
				CHANNELS 3 Zrotation Yrotation Xrotation
				JOINT LeftAnkle
				{
					OFFSET 2.50952 -6.89485 0.00000
					CHANNELS 3 Zrotation Yrotation Xrotation
					JOINT LeftToe
					{
						OFFSET 0.17171 -0.47178 1.88682
						CHANNELS 3 Zrotation Yrotation Xrotation
						End Site
						{
							OFFSET 0.00000 -0.00000 0.98146
						}
					}
				}
			}
		}
	}
	JOINT RHipJoint
	{
		OFFSET 0 0 0
		CHANNELS 3 Zrotation Yrotation Xrotation
		JOINT RightHip
		{
			OFFSET -1.28153 -1.73443 1.15205
			CHANNELS 3 Zrotation Yrotation Xrotation
			JOINT RightKnee
			{
				OFFSET -2.26861 -6.23296 0.00000
				CHANNELS 3 Zrotation Yrotation Xrotation
				JOINT RightAnkle
				{
					OFFSET -2.54143 -6.98254 0.00000
					CHANNELS 3 Zrotation Yrotation Xrotation
					JOINT RightToe
					{
						OFFSET -0.23309 -0.64041 1.93119
						CHANNELS 3 Zrotation Yrotation Xrotation
						End Site
						{
							OFFSET -0.00000 -0.00000 1.02013
						}
					}
				}
			}
		}
	}
	JOINT lowerback
	{
		OFFSET 0 0 0
		CHANNELS 3 Zrotation Yrotation Xrotation
		JOINT Chest
		{
			OFFSET -0.07096 2.10460 -0.27878
			CHANNELS 3 Zrotation Yrotation Xrotation
			JOINT Chest2
			{
				OFFSET -0.00826 2.13662 -0.08279
				CHANNELS 3 Zrotation Yrotation Xrotation
				JOINT lowerneck
				{
					OFFSET 0 0 0
					CHANNELS 3 Zrotation Yrotation Xrotation
					JOINT Neck
					{
						OFFSET 0.03239 1.77799 0.24435
						CHANNELS 3 Zrotation Yrotation Xrotation
						JOINT Head
						{
							OFFSET 0.01026 1.74194 -0.49664
							CHANNELS 3 Zrotation Yrotation Xrotation
							End Site
							{
								OFFSET 0.00170 1.83057 -0.19653
							}
						}
					}
				}
				JOINT LeftCollar
				{
					OFFSET 0 0 0
					CHANNELS 3 Zrotation Yrotation Xrotation
					JOINT LeftShoulder
					{
						OFFSET 3.19178 1.35907 -0.31412
CHANNELS 3 Zrotation Xrotation Yrotation
						JOINT LeftElbow
						{
OFFSET 0 -4.852470 -0.000000
CHANNELS 3 Zrotation Xrotation Yrotation
							JOINT LeftWrist
							{
OFFSET 0 -3.555840 0.000000
CHANNELS 3 Zrotation Xrotation Yrotation
								JOINT lhand
								{
									OFFSET 0 0 0
CHANNELS 3 Zrotation Xrotation Yrotation
									JOINT LFingers
									{
OFFSET 0 -0.693200 0.000000
CHANNELS 3 Zrotation Xrotation Yrotation
										End Site
										{
OFFSET 0 -0.558880 0.000000
										}
									}
								}
								JOINT LThumb
								{
OFFSET 0 0.000000 0.000000
CHANNELS 3 Zrotation Xrotation Yrotation
									End Site
									{
OFFSET 0 -0.567410 0.567410
									}
								}
							}
						}
					}
				}
				JOINT RightCollar
				{
					OFFSET 0 0 0
					CHANNELS 3 Zrotation Yrotation Xrotation
					JOINT RightShoulder
					{
						OFFSET -3.28999 1.24191 -0.26899
CHANNELS 3 Zrotation Xrotation Yrotation
						JOINT RightElbow
						{
OFFSET 0 -4.644620 0.000000
CHANNELS 3 Zrotation Xrotation Yrotation
							JOINT RightWrist
							{
OFFSET 0 -3.407030 0.000000
CHANNELS 3 Zrotation Xrotation Yrotation
								JOINT rhand
								{
									OFFSET 0 0 0
CHANNELS 3 Zrotation Xrotation Yrotation
									JOINT RFingers
									{
OFFSET 0 -0.619580 0.000000
CHANNELS 3 Zrotation Xrotation Yrotation
										End Site
										{
OFFSET 0 -0.499520 0.000000
										}
									}
								}
								JOINT RThumb
								{
OFFSET 0 0.000000 0.000000
CHANNELS 3 Zrotation Xrotation Yrotation
									End Site
									{
OFFSET 0 -0.507150 0.507150
									}
								}
							}
						}
					}
				}
			}
		}
	}
}
MOTION
Frames: 10
Frame Time: 0.008333333333333333
-30.349200 17.072300 1.139000 20.507900 84.736700 20.767300 0.000000 0.000000 0.000000 -18.350300 6.375800 9.406800 0.001600 -0.257400 -0.707200 0.146900 12.862600 -20.009700 0.226300 -3.062400 -8.452400 0.000000 0.000000 0.000000 14.770200 -5.373100 5.185100 -0.037000 -1.242200 3.415400 -0.725200 2.123000 -15.506600 -0.468900 -4.391800 12.181800 -5.431100 1.640000 4.657300 0.041800 1.937300 0.967800 2.967100 1.001900 -1.793800 4.821400 2.516700 -22.331900 -3.295900 3.243300 28.125700 -1.502400 1.608100 13.338600 -0.000000 0.000000 0.000000 90.000000 0.000000 0.000000 -0.000000 0.000000 0.000000 -0.000000 0.000000 -0.000000 0.000000 0.000000 0.000000 -0.000000 -0.000000 -0.000000 -0.000000 0.000000 -0.000000 -0.000000 0.000000 0.000000 -90.000000 0.000000 -0.000000 0.000000 0.000000 -0.000000 0.000000 0.000000 -0.000000 0.000000 0.000000 0.000000 0.000000 -0.000000 0.000000 0.000000 0.000000 0.000000
-30.340662 17.072910 1.146530 22.355834 84.721853 22.540355 0.000000 0.000000 0.000000 -18.734127 5.775400 9.861471 0.002958 -0.349852 -0.961392 0.103154 13.517602 -20.381991 0.219923 -3.018639 -8.330678 0.000000 0.000000 0.000000 14.371516 -6.025135 5.443416 -0.025324 -1.027539 2.824520 -0.689610 2.553421 -15.026496 -0.491455 -4.495093 12.473808 -5.915817 1.556832 4.822091 0.193006 1.794625 0.969067 3.401157 0.936363 -1.890704 4.556125 2.620710 -22.665061 -3.146775 3.442656 28.392129 -1.361786 1.684902 13.520928 0.000000 0.000000 0.000000 90.000000 0.000000 0.000000 0.000000 0.000000 0.000000 0.000000 0.000000 0.000000 0.000000 0.000000 0.000000 0.000000 0.000000 0.000000 0.000000 0.000000 0.000000 0.000000 0.000000 0.000000 -90.000000 0.000000 0.000000 0.000000 0.000000 0.000000 0.000000 0.000000 0.000000 0.000000 0.000000 0.000000 0.000000 0.000000 0.000000 0.000000 0.000000 0.000000
-30.334332 17.067332 1.150488 21.241381 84.740139 21.478276 0.000000 0.000000 0.000000 -18.294670 6.544148 9.425851 0.001476 -0.246624 -0.677609 0.135513 12.839528 -19.854509 0.228251 -3.070915 -8.476562 0.000000 0.000000 0.000000 14.711179 -5.415484 5.187607 -0.040004 -1.290749 3.549133 -0.748524 2.270129 -15.732230 -0.453307 -4.319514 11.977238 -5.415341 1.680212 4.646661 -0.016659 1.996876 1.089692 2.896287 1.026584 -1.664805 4.692092 2.581548 -22.885332 -3.084230 3.286881 28.290413 -1.387110 1.634734 13.518131 0.000000 0.000000 0.000000 2.532032 -0.714416 -38.848932 11.426582 -18.939147 1.912049 13.672368 11.153601 26.488906 0.000000 0.000000 0.000000 -7.125000 0.000000 0.000000 -9.761068 3.165518 -9.346094 0.000000 0.000000 0.000000 -90.000000 0.000000 0.000000 0.000000 0.000000 0.000000 0.000000 0.000000 0.000000 0.000000 0.000000 0.000000 0.000000 0.000000 0.000000 0.000000 0.000000 0.000000
-30.323477 17.065643 1.154556 25.451194 84.654531 25.785527 0.000000 0.000000 0.000000 -18.985125 6.003972 9.590667 0.002220 -0.301581 -0.828576 0.097642 13.364950 -20.120243 0.290408 -3.464521 -9.575069 0.000000 0.000000 0.000000 14.203403 -5.560326 5.097452 -0.039798 -1.287319 3.539782 -0.727397 2.286191 -15.498356 -0.407731 -4.098031 11.352797 -5.815119 1.656354 4.442273 -0.123899 1.958241 1.070491 3.017231 1.007100 -1.575890 4.643067 2.548803 -22.860880 -2.998741 3.231444 28.290203 -1.355264 1.617829 13.507444 0.000000 0.000000 0.000000 2.468471 -0.638731 -38.522920 11.458211 -18.987197 1.922395 14.577274 11.176602 26.397829 0.000000 0.000000 0.000000 -7.125000 0.000000 0.000000 -9.212078 3.129520 -8.811810 0.000000 0.000000 0.000000 -90.000000 0.000000 0.000000 0.000000 0.000000 0.000000 0.000000 0.000000 0.000000 0.000000 0.000000 0.000000 0.000000 0.000000 0.000000 0.000000 0.000000 0.000000
-30.314514 17.069467 1.159140 25.120351 84.559697 25.473234 0.000000 0.000000 0.000000 -18.783113 6.542174 9.257652 0.000848 -0.192376 -0.528579 0.128962 12.837260 -19.777551 0.266545 -3.318794 -9.167792 0.000000 0.000000 0.000000 14.101328 -5.737568 4.935519 -0.043187 -1.341820 3.689886 -0.733288 2.687680 -15.489306 -0.430200 -4.209272 11.666252 -5.831666 1.725271 4.372322 -0.137663 2.052308 1.041457 3.007596 1.054525 -1.575807 4.567176 2.526938 -22.714689 -2.852863 3.186383 28.215678 -1.293313 1.612065 13.439187 0.000000 0.000000 0.000000 2.476500 -0.652197 -38.614042 11.446271 -18.969086 1.918497 15.080198 11.134618 26.439969 0.000000 0.000000 0.000000 -7.125000 0.000000 0.000000 -8.912267 3.014125 -8.538054 0.000000 0.000000 0.000000 -90.000000 0.000000 0.000000 0.000000 0.000000 0.000000 0.000000 0.000000 0.000000 0.000000 0.000000 0.000000 0.000000 0.000000 0.000000 0.000000 0.000000 0.000000
-30.301868 17.067700 1.159779 24.247300 84.506760 24.460632 0.000000 0.000000 0.000000 -18.718100 6.619108 9.503843 0.001030 -0.205157 -0.563660 0.136033 12.882655 -19.915291 0.286555 -3.442371 -9.512908 0.000000 0.000000 0.000000 14.146515 -5.750711 5.148248 -0.042730 -1.333411 3.666682 -0.730540 2.692537 -15.458483 -0.470945 -4.401505 12.209100 -5.727902 1.761093 4.436356 -0.131230 2.102793 1.094613 2.952007 1.078032 -1.558156 4.434972 2.547023 -22.773622 -2.624751 3.189034 28.250006 -1.179974 1.630435 13.458768 0.000000 0.000000 0.000000 2.490954 -0.713968 -38.793057 11.398273 -18.896085 1.902891 13.493802 11.558933 26.789084 0.000000 0.000000 0.000000 -7.125000 0.000000 0.000000 -9.886827 2.891042 -9.520790 0.000000 0.000000 0.000000 -90.000000 0.000000 0.000000 0.000000 0.000000 0.000000 0.000000 0.000000 0.000000 0.000000 0.000000 0.000000 0.000000 0.000000 0.000000 0.000000 0.000000 0.000000
-30.289726 17.069656 1.156820 22.175462 84.690042 22.405702 0.000000 0.000000 0.000000 -18.467237 6.605299 9.562042 0.001064 -0.210782 -0.579235 0.137793 12.836229 -19.875564 0.267600 -3.327595 -9.192107 0.000000 0.000000 0.000000 14.383012 -6.114992 5.127695 -0.041208 -1.310123 3.602535 -0.722210 2.875603 -15.336724 -0.378432 -3.950758 10.938334 -5.360591 1.711212 4.285320 -0.097867 2.065996 1.182997 2.789269 1.052014 -1.367786 4.482420 2.590945 -22.975231 -2.649240 3.231423 28.309066 -1.188873 1.647855 13.529024 0.000000 0.000000 0.000000 2.554136 -0.754668 -39.010266 11.493903 -19.041358 1.933998 15.000029 10.818286 26.290349 0.000000 0.000000 0.000000 -7.125000 0.000000 0.000000 -8.950034 3.176254 -8.547701 0.000000 0.000000 0.000000 -90.000000 0.000000 0.000000 0.000000 0.000000 0.000000 0.000000 0.000000 0.000000 0.000000 0.000000 0.000000 0.000000 0.000000 0.000000 0.000000 0.000000 0.000000
-30.283811 17.072373 1.158294 23.013205 84.739539 23.244258 0.000000 0.000000 0.000000 -18.521625 6.703492 9.556445 0.001294 -0.228627 -0.628112 0.094326 13.050753 -19.667964 0.366582 -3.888001 -10.761847 0.000000 0.000000 0.000000 14.282495 -6.308163 5.025590 -0.043990 -1.354076 3.723613 -0.721956 3.002871 -15.314560 -0.372931 -3.921614 10.856342 -5.378169 1.666548 4.214158 -0.108601 2.012045 1.225146 2.794108 1.022323 -1.279787 4.587458 2.554842 -22.956663 -2.843803 3.196084 28.209280 -1.290176 1.614663 13.487555 0.000000 0.000000 0.000000 2.565569 -0.850874 -39.183891 11.453211 -18.979561 1.920712 14.931713 10.600059 26.147608 0.000000 0.000000 0.000000 -7.125000 0.000000 0.000000 -8.980543 3.328664 -8.553163 0.000000 0.000000 0.000000 -90.000000 0.000000 0.000000 0.000000 0.000000 0.000000 0.000000 0.000000 0.000000 0.000000 0.000000 0.000000 0.000000 0.000000 0.000000 0.000000 0.000000 0.000000
-30.278198 17.072715 1.159802 23.774638 84.699457 24.050955 0.000000 0.000000 0.000000 -18.784652 6.292175 9.855734 0.003175 -0.362544 -0.996066 0.067721 13.433281 -19.880334 0.357388 -3.835272 -10.614285 0.000000 0.000000 0.000000 14.154644 -6.452059 4.934495 -0.045104 -1.370610 3.769213 -0.719294 3.137543 -15.266022 -0.394361 -4.031576 11.165529 -5.440411 1.640077 4.168574 -0.131516 1.975487 1.193506 2.808226 1.004777 -1.284959 4.648564 2.616649 -22.987332 -2.933094 3.293483 28.258605 -1.317941 1.651421 13.522477 0.000000 0.000000 0.000000 2.626455 -0.822523 -39.402458 11.481500 -19.022497 1.929935 14.437033 10.425755 26.054844 0.000000 0.000000 0.000000 -7.125000 0.000000 0.000000 -9.273381 3.492750 -8.809372 0.000000 0.000000 0.000000 -90.000000 0.000000 0.000000 0.000000 0.000000 0.000000 0.000000 0.000000 0.000000 0.000000 0.000000 0.000000 0.000000 0.000000 0.000000 0.000000 0.000000 0.000000
-30.270405 17.073016 1.167874 23.380935 84.758962 23.655544 0.000000 0.000000 0.000000 -18.516957 6.626416 9.671880 0.001933 -0.279308 -0.767503 0.123938 12.858802 -19.750872 0.275033 -3.371777 -9.315754 0.000000 0.000000 0.000000 14.385961 -5.970935 5.278034 -0.038984 -1.275030 3.505910 -0.735462 2.708870 -15.509488 -0.430695 -4.210196 11.668954 -5.356327 1.637661 4.153921 -0.163542 1.974448 1.151216 2.727899 1.005469 -1.316494 4.859459 2.607066 -22.861291 -3.124083 3.267861 28.217951 -1.434583 1.638243 13.486184 0.000000 0.000000 0.000000 2.787038 -0.718703 -39.664420 11.559548 -19.140834 1.955480 13.179359 10.543512 26.381055 0.000000 0.000000 0.000000 -7.125000 0.000000 0.000000 -10.050261 3.340349 -9.598821 0.000000 0.000000 0.000000 -90.000000 0.000000 0.000000 0.000000 0.000000 0.000000 0.000000 0.000000 0.000000 0.000000 0.000000 0.000000 0.000000 0.000000 0.000000 0.000000 0.000000 0.000000
